<?xml version="1.0" encoding="UTF-8"?>
<svg width="106px" height="87px" viewBox="0 0 106 87" version="1.1" xmlns="http://www.w3.org/2000/svg" xmlns:xlink="http://www.w3.org/1999/xlink">
    <!-- Generator: Sketch 55.2 (78181) - https://sketchapp.com -->
    <title>logo 2</title>
    <desc>Created with Sketch.</desc>
    <g id="Page-1" stroke="none" stroke-width="1" fill="none" fill-rule="evenodd">
        <g id="logo" fill="#FFFFFF" fill-rule="nonzero">
            <path fill="#white" d="M54,62 C65.045695,62 74,53.045695 74,42 C74,30.954305 65.045695,22 54,22 C42.954305,22 34,30.954305 34,42 C34,53.045695 42.954305,62 54,62 Z M42.58,40.58 C42.9555332,40.2013747 43.4667249,39.9884034 44,39.9884034 C44.5332751,39.9884034 45.0444668,40.2013747 45.42,40.58 L51,46.18 L62.58,34.58 C63.0873171,34.0726829 63.826748,33.874553 64.5197561,34.0602439 C65.2127642,34.2459349 65.7540651,34.7872358 65.9397561,35.4802439 C66.125447,36.173252 65.9273171,36.9126829 65.42,37.42 L52.42,50.42 C52.0444668,50.7986253 51.5332751,51.0115966 51,51.0115966 C50.4667249,51.0115966 49.9555332,50.7986253 49.58,50.42 L42.58,43.42 C42.2013747,43.0444668 41.9884034,42.5332751 41.9884034,42 C41.9884034,41.4667249 42.2013747,40.9555332 42.58,40.58 Z" id="Shape"></path>
            <path fill="#8265a7" d="M95.04,41.652009 L99,41.652009 L94.6836,36.2964597 L94.6836,36.2964597 L92.7036,33.7368222 C92.3278024,33.2710247 91.7597271,33 91.1592,33 C90.5586729,33 89.9905976,33.2710247 89.6148,33.7368222 L86.8032,37.1234195 L83.16,41.652009 L87.12,41.652009 C87.12,60.1381853 72.0499047,75.1241922 53.46,75.1241922 L1.98,75.1241922 C0.886476195,75.1241922 0,76.005722 0,77.0931441 L0,81.031048 C0,82.1184702 0.886476195,83 1.98,83 L53.46,83 C76.4239999,83 95.04,64.4878739 95.04,41.652009 Z" id="Path"></path>
            <path fill="#8265a7" d="M12.3290592,46.7161133 L14.3148662,49.2659882 C14.691766,49.7300091 15.2615073,50 15.8637957,50 C16.4660841,50 17.0358254,49.7300091 17.4127251,49.2659882 L20.1531388,45.8923076 L23.8864559,41.3613761 L19.914842,41.3613761 C19.8986629,25.74375 30.8592036,12.2073793 46.2877864,8.79054207 C61.7163693,5.37370486 77.4789534,12.9919321 84.2152724,27.1213058 C84.4975042,27.6989777 85.047861,28.1038517 85.6890412,28.2054946 C86.3302214,28.3071375 86.9812077,28.0927059 87.4322797,27.6312808 L90.4109902,24.6891175 C91.0224003,24.0914596 91.174717,23.1729354 90.7882935,22.4138446 C81.9904833,5.45113872 62.5599076,-3.33475927 43.8114264,1.17237604 C25.0629452,5.67951135 11.8933594,22.3024889 11.971614,41.3613761 L8,41.3613761 L12.3290592,46.6964989 L12.3290592,46.7161133 Z" id="Path"></path>
            <path fill="#8265a7" d="M105.251304,77.44 L97.2485838,71 L97.2485838,75 L84.2041491,75 C82.9352064,76.1576591 81.5991023,77.2395355 80.2027887,78.24 C77.6457332,80.1139045 74.8958938,81.7096101 72,83 L97.2485838,83 L97.2485838,87 L105.251304,80.56 C105.724608,80.1804065 106,79.6065931 106,79 C106,78.3934069 105.724608,77.8195935 105.251304,77.44 Z" id="Path"></path>
            <path fill="#8265a7" d="M22.12,53 L16,59.0794702 C18.13198,63.5283816 21.044058,67.5648365 24.6,71 L38,71 C30.6722882,67.1267259 25.0240333,60.7244218 22.12,53 L22.12,53 Z" id="Path"></path>
        </g>
    </g>
</svg>